<?xml version="1.0" encoding="UTF-8"?>
<!DOCTYPE svg PUBLIC "-//W3C//DTD SVG 1.1//EN" "http://www.w3.org/Graphics/SVG/1.1/DTD/svg11.dtd">
<!-- Creator: CorelDRAW -->
<svg xmlns="http://www.w3.org/2000/svg" xml:space="preserve" width="2048px" height="2048px" style="shape-rendering:geometricPrecision; text-rendering:geometricPrecision; image-rendering:optimizeQuality; fill-rule:evenodd; clip-rule:evenodd"
viewBox="0 0 2048 2048"
 xmlns:xlink="http://www.w3.org/1999/xlink">
 <defs>
  <style type="text/css">
   <![CDATA[
    .fil2 {fill:none}
    .fil1 {fill:#00897B}
    .fil8 {fill:#424242}
    .fil0 {fill:#4DB6AC}
    .fil10 {fill:#558B2F}
    .fil14 {fill:#6D4C41}
    .fil5 {fill:#7CB342}
    .fil4 {fill:#B3E5FC}
    .fil12 {fill:#C62828}
    .fil9 {fill:#DCEDC8}
    .fil11 {fill:#E53935}
    .fil6 {fill:#FFB74D}
    .fil13 {fill:#FFD54F}
    .fil7 {fill:#FFE082}
    .fil3 {fill:#EEEEEE;fill-rule:nonzero}
   ]]>
  </style>
   <clipPath id="id0">
    <path d="M1024 -0.0011811c565.541,0 1024,458.461 1024,1024 0,565.541 -458.461,1024 -1024,1024 -565.541,0 -1024,-458.461 -1024,-1024 0,-565.541 458.461,-1024 1024,-1024z"/>
   </clipPath>
 </defs>
 <g id="Layer_x0020_1">
  <metadata id="CorelCorpID_0Corel-Layer"/>
  <path class="fil0" d="M1024 -0.0011811c565.541,0 1024,458.461 1024,1024 0,565.541 -458.461,1024 -1024,1024 -565.541,0 -1024,-458.461 -1024,-1024 0,-565.541 458.461,-1024 1024,-1024z"/>
  <g style="clip-path:url(#id0)">
   <g id="_385670872">
    <g>
     <polygon id="_3856955681" class="fil1" points="1584,600.622 2719.88,1736.5 2719.88,2285.92 1584,1150.04 "/>
     <polygon id="_385695616" class="fil1" points="1584,1150.04 2719.88,2285.92 2695.87,2285.92 1559.99,1150.04 "/>
     <polygon id="_385663960" class="fil1" points="915.605,600.622 2051.49,1736.5 2051.49,2285.92 915.605,1150.04 "/>
     <polygon id="_385664488" class="fil1" points="1156.28,1150.04 2292.16,2285.92 2268.28,2285.92 1132.4,1150.04 "/>
     <polygon id="_385664536" class="fil1" points="1559.99,1150.04 2695.87,2285.92 2292.16,2285.92 1156.28,1150.04 "/>
     <polygon id="_385664416" class="fil1" points="915.605,1150.04 2051.49,2285.92 2020.36,2285.92 884.482,1150.04 "/>
     <polygon id="_385665256" class="fil1" points="884.482,1150.04 2020.36,2285.92 1841.79,2285.92 705.914,1150.04 "/>
     <polygon id="_385665352" class="fil1" points="705.914,1150.04 1841.79,2285.92 1809.3,2285.92 673.415,1150.04 "/>
     <polygon id="_385665376" class="fil1" points="673.415,1150.04 1809.3,2285.92 1630.96,2285.92 495.075,1150.04 "/>
     <polygon id="_385665424" class="fil1" points="495.075,1150.04 1630.96,2285.92 1599.88,2285.92 464,1150.04 "/>
     <polygon id="_385664776" class="fil1" points="705.586,1178.86 1841.47,2314.74 1841.47,2533.31 705.586,1397.43 "/>
     <polygon id="_385665016" class="fil1" points="1392.36,1178.79 2528.24,2314.67 2528.24,2558.29 1392.36,1422.4 "/>
     <polygon id="_385666120" class="fil1" points="1392.36,1422.4 2528.24,2558.29 2528.24,2583.26 1392.36,1447.38 "/>
     <polygon id="_385665736" class="fil1" points="1392.36,1447.38 2528.24,2583.26 2503.27,2583.26 1367.39,1447.38 "/>
     <polygon id="_385665904" class="fil1" points="1367.39,1447.38 2503.27,2583.26 1816.49,2583.26 680.612,1447.38 "/>
     <polygon id="_385665880" class="fil1" points="680.612,1447.38 1816.49,2583.26 1791.52,2583.26 655.638,1447.38 "/>
    </g>
    <path id="_385671544" class="fil1" d="M1584 600.622l0 549.419 -24.0142 0 -403.707 0 -23.8843 0 0 -549.419 451.605 0zm-668.396 0l0 549.419 -31.1233 0 -178.569 0 -32.4981 0 -178.341 0 -31.0748 0 0 -549.419 451.605 0zm-210.019 578.239l0 218.569 636.827 0 0 -218.64 49.9489 0 0 243.613 0 24.9756 -24.9744 0 -686.776 0 -24.9744 0 0 -24.9756 0 -243.542 49.9489 0z"/>
   </g>
  </g>
  <path class="fil2" d="M1024 -0.0011811c565.541,0 1024,458.461 1024,1024 0,565.541 -458.461,1024 -1024,1024 -565.541,0 -1024,-458.461 -1024,-1024 0,-565.541 458.461,-1024 1024,-1024z"/>
  <polygon class="fil3" points="705.586,1178.86 705.586,1397.43 1342.41,1397.43 1342.41,1178.79 1392.36,1178.79 1392.36,1422.4 1392.36,1447.38 1367.39,1447.38 680.612,1447.38 655.639,1447.38 655.639,1422.4 655.639,1178.86 "/>
  <rect class="fil4" x="464" y="600.622" width="451.605" height="549.418"/>
  <path class="fil5" d="M560.739 1031.08c-32.6386,21.1902 -46.93,65.7355 -65.6646,118.957l389.407 0c-18.6449,-53.4201 -32.7461,-98.2961 -65.7402,-118.957 -58.9099,-36.8882 -94.3631,-45.7252 -129.124,-46.1989 -35.5512,-0.484252 -70.389,8.22284 -128.878,46.1989z"/>
  <path class="fil6" d="M822.524 769.705c7.52127,1.67599 10.4787,17.1473 6.60355,34.565 -3.87874,17.4154 -13.1162,30.1748 -20.6374,28.5 -7.5189,-1.67244 -10.4752,-17.1473 -6.60237,-34.5626 3.87756,-17.4142 13.115,-30.176 20.6362,-28.5024z"/>
  <path class="fil6" d="M640.953 843.517l97.5733 0 0 141.137c0,47.6327 -97.5745,53.1095 -97.5745,0l0.0011811 -141.137z"/>
  <path class="fil6" d="M557.085 769.705c-7.52008,1.67599 -10.4787,17.1473 -6.60355,34.565 3.8752,17.4154 13.115,30.1748 20.6374,28.5 7.51654,-1.67244 10.474,-17.1473 6.59882,-34.5626 -3.87402,-17.4142 -13.1114,-30.176 -20.6327,-28.5024z"/>
  <path class="fil7" d="M689.74 675.78c206.64,0 122.875,272.965 -0.0011811,272.965 -122.87,0 -206.642,-272.964 0.0011811,-272.965z"/>
  <path class="fil8" d="M632.167 703.182c-33.4252,14.2099 -47.0422,57.0993 -54.7772,86.002 -11.2406,41.9788 -4.90394,38.3764 -19.8862,6.38741 -14.9858,-31.9855 21.7229,-169.928 128.89,-169.928 107.166,0 151.041,106.117 136.063,164.093 -14.987,57.9804 -14.987,44.2063 -24.3567,0.230315 -24.0862,-113.117 -143.79,24.3036 -165.933,-86.7851z"/>
  <path class="fil9" d="M679.055 1070.71l-5.63977 79.33 32.4969 0 -5.63859 -79.3253 34.4693 -82.565c-32.2701,-0.576378 -58.0961,-0.504331 -90.1489,0l34.4611 82.5603z"/>
  <polygon class="fil10" points="640.816,958.835 610.053,989.328 604.426,1050.19 688.496,988.004 "/>
  <polygon class="fil10" points="738.337,958.835 769.098,989.328 774.726,1050.19 690.656,988.004 "/>
  <rect class="fil4" x="1132.4" y="600.622" width="451.605" height="549.418"/>
  <path class="fil11" d="M1224.36 1026.72c-33.8374,21.9673 -48.6532,68.1497 -68.0764,123.325l403.707 0c-19.3299,-55.3819 -33.9496,-101.904 -68.1556,-123.325 -61.0725,-38.2429 -97.8272,-47.4036 -133.865,-47.8949 -36.8563,-0.501969 -72.9733,8.52402 -133.61,47.8949z"/>
  <path class="fil12" d="M1412.71 987.699c-20.1295,-6.42638 -37.5201,-8.64331 -54.7453,-8.87835 -18.8705,-0.257481 -37.5496,1.98543 -59.4225,9.51851 -0.505512,1.72087 -0.773623,3.48544 -0.773623,5.28662 0,17.8689 25.9488,32.3563 57.9579,32.3563 32.0091,0 57.9567,-14.4874 57.9567,-32.3563 0,-2.02559 -0.335433,-4.00512 -0.973229,-5.92678z"/>
  <path class="fil13" d="M1490.92 769.705c7.52245,1.67599 10.4787,17.1473 6.60473,34.565 -3.87992,17.4154 -13.1162,30.1748 -20.6374,28.5 -7.52008,-1.67244 -10.4752,-17.1473 -6.60355,-34.5626 3.87874,-17.4142 13.115,-30.176 20.6362,-28.5024z"/>
  <path class="fil13" d="M1309.35 843.517l97.5745 0 0 141.137c0,47.6327 -97.5757,53.1095 -97.5757,0l0.0011811 -141.137z"/>
  <path class="fil13" d="M1225.48 769.705c-7.52008,1.67599 -10.4776,17.1473 -6.60355,34.565 3.87638,17.4154 13.1162,30.1748 20.6374,28.5 7.51772,-1.67244 10.474,-17.1473 6.60001,-34.5626 -3.8752,-17.4142 -13.1114,-30.176 -20.6339,-28.5024z"/>
  <path class="fil7" d="M1358.13 675.78c170.554,0 143.275,185.951 59.4591,250.898 -37.3311,28.9252 -80.1296,29.3965 -117.809,0.849213 -84.678,-64.1587 -112.955,-251.746 58.35,-251.747z"/>
  <path class="fil14" d="M1300.56 703.182c-33.4264,14.2099 -47.0422,57.0993 -54.7772,86.002 -11.2406,41.9788 -4.90512,38.3764 -19.8874,6.38741 -14.9858,-31.9855 21.724,-169.928 128.89,-169.928 107.167,0 151.042,106.117 136.063,164.093 -14.987,57.9804 -14.987,44.2063 -24.3555,0.230315 -24.0862,-113.117 -143.791,24.3036 -165.933,-86.7851z"/>
 </g>
</svg>
