<?xml version="1.0" encoding="utf-8"?>
<!-- Generator: Adobe Illustrator 21.1.0, SVG Export Plug-In . SVG Version: 6.00 Build 0)  -->
<svg version="1.1" id="Layer_1" xmlns="http://www.w3.org/2000/svg" xmlns:xlink="http://www.w3.org/1999/xlink" x="0px" y="0px"
	 viewBox="0 0 64 64" style="enable-background:new 0 0 64 64;" xml:space="preserve">
<style type="text/css">
	.st0{fill:#FFFFFF;}
	.st1{fill:#ACBDC5;}
	.st2{fill:#597380;}
	.st3{fill-rule:evenodd;clip-rule:evenodd;fill:#314A52;}
</style>
<g id="Chess-Board">
	<path class="st0" d="M6,12c0-3.3,2.7-6,6-6h40c3.3,0,6,2.7,6,6v40c0,3.3-2.7,6-6,6H12c-3.3,0-6-2.7-6-6V12z"/>
	<path class="st1" d="M4,12c0-4.4,3.6-8,8-8h8v16H8v12h12v12H8v2v0c0,2.8,5.1,5.1,12,5.8V44h12v7.4c4.4-0.7,8.5-2,12-3.8V44h5.6
		c4-3.3,6.4-7.5,6.4-12h2v20c0,3.3-2.7,6-6,6h-8v2H12c-4.4,0-8-3.6-8-8V12z M32,32v12h12V32H32z M44,32h12V20H44V32z M44,20V8H32v12
		H44z M32,20H20v12h12V20z"/>
	<path class="st2" d="M32,56H20v-4.2c1.3,0.1,2.6,0.2,4,0.2c2.8,0,5.4-0.2,8-0.6V56z M44,47.6V56h12V44h-6.4
		C48,45.3,46.1,46.6,44,47.6z"/>
	<path class="st3" d="M20,4h32c4.4,0,8,3.6,8,8v40c0,4.4-3.6,8-8,8h-8v-4h8c2.2,0,4-1.8,4-4V12c0-2.2-1.8-4-4-4H20V4z"/>
</g>
</svg>
