<?xml version="1.0" encoding="utf-8"?>
<!-- Generator: Adobe Illustrator 18.0.0, SVG Export Plug-In . SVG Version: 6.00 Build 0)  -->
<!DOCTYPE svg PUBLIC "-//W3C//DTD SVG 1.1//EN" "http://www.w3.org/Graphics/SVG/1.1/DTD/svg11.dtd">
<svg version="1.1" id="Icon_Set" xmlns="http://www.w3.org/2000/svg" xmlns:xlink="http://www.w3.org/1999/xlink" x="0px" y="0px"
	 viewBox="0 0 256 256" style="enable-background:new 0 0 256 256;" xml:space="preserve">
<style type="text/css">
	.st0{fill:#484771;}
	.st1{fill:#F1C48B;}
	.st2{fill:#D5E6F7;}
	.st3{fill:#A0D1F2;}
	.st4{fill:#FD919F;}
	.st5{fill:#E0667D;}
	.st6{fill:#504774;}
	.st7{fill:#7BACF1;}
	.st8{fill:#FFFFFF;}
	.st9{fill:#D4E7F8;}
	.st10{fill:#A3D0F1;}
	.st11{fill:#4C4372;}
	.st12{fill:#7BABF3;}
	.st13{fill:#FD919E;}
	.st14{fill:#D3E6F8;}
	.st15{fill:#E8677D;}
	.st16{fill:#A4CFF2;}
</style>
<g>
	<g>
		<circle class="st1" cx="128" cy="128" r="103.873"/>
	</g>
	<g>
		<polygon class="st8" points="174.476,200.449 80.979,200.449 80.979,134.319 127.156,89.257 174.476,134.319 		"/>
	</g>
	<g>
		<path class="st12" d="M140.466,171.777l-5.172-16.748c3.536-2.442,5.792-6.606,5.543-11.284
			c-0.348-6.534-5.781-11.885-12.319-12.142c-7.336-0.288-13.373,5.574-13.373,12.845c0,4.39,2.204,8.261,5.562,10.58l-5.172,16.748
			c-0.57,1.847,0.811,3.719,2.744,3.719h19.444C139.655,175.496,141.036,173.624,140.466,171.777z"/>
	</g>
	<g>
		<polygon class="st2" points="151.396,200.449 174.476,200.449 174.476,134.319 151.396,112.34 		"/>
	</g>
	<g>
		<g>
			<polygon class="st4" points="195.875,154.63 127.225,89.257 60.34,154.527 43.391,137.161 127.019,55.551 212.609,137.057 			"/>
		</g>
	</g>
	<g>
		<polygon class="st5" points="151.396,112.274 195.875,154.63 212.609,137.057 151.396,78.765 		"/>
	</g>
	<g>
		<polygon class="st5" points="174.476,100.744 174.476,100.744 174.476,55.551 151.396,55.551 151.396,78.765 		"/>
	</g>
	<g>
		<path class="st6" d="M174.476,203.449H80.979c-1.657,0-3-1.343-3-3v-66.13c0-0.809,0.326-1.583,0.905-2.147l46.177-45.062
			c1.156-1.127,2.996-1.138,4.164-0.025l47.32,45.062c0.595,0.566,0.931,1.351,0.931,2.172v66.13
			C177.476,202.105,176.133,203.449,174.476,203.449z M83.979,197.449h87.497v-61.844l-44.294-42.181l-43.203,42.159V197.449z"/>
	</g>
	<g>
		<path class="st6" d="M174.477,103.744c-0.756,0-1.5-0.286-2.069-0.828l-23.081-21.979c-0.595-0.566-0.931-1.351-0.931-2.172
			V55.551c0-1.657,1.343-3,3-3h23.081c1.657,0,3,1.343,3,3v45.193c0,1.2-0.715,2.285-1.818,2.757
			C175.277,103.665,174.875,103.744,174.477,103.744z M154.396,77.479l17.081,16.266V58.551h-17.081V77.479z"/>
	</g>
	<g>
		<g>
			<path class="st6" d="M195.875,157.63c-0.77,0-1.51-0.295-2.069-0.828l-66.555-63.379l-64.816,63.25
				c-1.185,1.157-3.084,1.135-4.242-0.052l-16.949-17.367c-0.556-0.569-0.862-1.336-0.853-2.132c0.01-0.795,0.335-1.555,0.905-2.11
				l83.628-81.609c1.157-1.127,2.997-1.138,4.164-0.025l85.59,81.506c1.2,1.143,1.246,3.042,0.104,4.241l-16.734,17.573
				c-0.548,0.576-1.304,0.911-2.099,0.93C195.924,157.63,195.899,157.63,195.875,157.63z M127.226,86.257
				c0.745,0,1.489,0.275,2.069,0.828l66.477,63.305l12.596-13.228l-81.323-77.443l-79.411,77.494l12.758,13.073L125.13,87.11
				C125.713,86.542,126.469,86.257,127.226,86.257z"/>
		</g>
	</g>
	<g>
		<path class="st6" d="M137.722,178.496h-19.444c-1.884,0-3.606-0.87-4.725-2.386c-1.119-1.516-1.441-3.418-0.886-5.218
			l4.572-14.806c-3.224-2.981-5.095-7.19-5.095-11.638c0-8.953,7.47-16.196,16.491-15.843c8.091,0.318,14.766,6.898,15.197,14.98
			c0.256,4.792-1.613,9.322-5.071,12.504l4.571,14.802c0.556,1.8,0.233,3.703-0.885,5.219
			C141.328,177.626,139.606,178.496,137.722,178.496z M118.452,172.496h19.096l-5.121-16.582c-0.387-1.251,0.083-2.609,1.162-3.354
			c2.847-1.966,4.436-5.201,4.252-8.655c-0.268-5.02-4.415-9.106-9.441-9.304c-5.615-0.207-10.255,4.281-10.255,9.848
			c0,3.234,1.595,6.267,4.267,8.112c1.078,0.745,1.548,2.102,1.161,3.354L118.452,172.496z"/>
	</g>
</g>
</svg>
