<svg xmlns="http://www.w3.org/2000/svg" viewBox="0 0 64 64"><g id="_02-Award" data-name="02-Award"><polygon points="48 57 48 63 16 63 16 57 19 57 45 57 48 57" style="fill:#c73e36"/><polygon points="45 49 45 57 19 57 19 49 24 49 40 49 45 49" style="fill:#fa7a31"/><polygon points="39 15.35 35.5 18.93 36.33 24 32 21.61 27.67 24 28.5 18.93 25 15.35 29.84 14.61 32 10 34.16 14.61 39 15.35" style="fill:#fff"/><rect x="17" y="1" width="30" height="4" style="fill:#ffab02"/><path d="M17,22V10H10v7a5,5,0,0,0,5,5Zm32,0a5,5,0,0,0,5-5V10H47V22ZM57,7V17a8,8,0,0,1-8,8H46.7A15,15,0,0,1,36.01,36.45,26.394,26.394,0,0,0,40,49H24a26.394,26.394,0,0,0,3.99-12.55A15,15,0,0,1,17.3,25H15a8,8,0,0,1-8-8V7H17V5H47V7ZM35.5,18.93,39,15.35l-4.84-.74L32,10l-2.16,4.61L25,15.35l3.5,3.58L27.67,24,32,21.61,36.33,24Z" style="fill:#ffcb02"/><path d="M23,22V5H17V7H7V17a8,8,0,0,0,8,8h2.3A15,15,0,0,0,27.99,36.45,26.394,26.394,0,0,1,24,49H40a26.31,26.31,0,0,1-3.965-12.143A14.993,14.993,0,0,1,23,22Zm-6,0H15a5,5,0,0,1-5-5V10h7Z" style="fill:#ffab02"/><path d="M17,1V5H47V3H25a2,2,0,0,1-2-2H17Z" style="fill:#ff9102"/><path d="M19,49v8H45V54H26a3,3,0,0,1-3-3V49Z" style="fill:#fe4f46"/><path d="M16,57v6H48V61H23a3,3,0,0,1-3-3V57Z" style="fill:#ad362f"/><path d="M57,6H48V1a1,1,0,0,0-1-1H28V2H46V7a1,1,0,0,0,1,1h9v9a7.008,7.008,0,0,1-7,7H46.7a1,1,0,0,0-.98.8,14.1,14.1,0,0,1-9.972,10.688,1,1,0,0,0-.732,1.011A27.878,27.878,0,0,0,38.231,48H35v2h9v6H20V50H33V48H25.769a27.878,27.878,0,0,0,3.215-11.5,1,1,0,0,0-.732-1.011A14.1,14.1,0,0,1,18.28,24.8a1,1,0,0,0-.98-.8H15a7.008,7.008,0,0,1-7-7V8h9a1,1,0,0,0,1-1V6H40V4H18V2h4V0H17a1,1,0,0,0-1,1V6H7A1,1,0,0,0,6,7V17a9.011,9.011,0,0,0,9,9h1.5a16.152,16.152,0,0,0,10.43,11.176A25.32,25.32,0,0,1,23.446,48H19a1,1,0,0,0-1,1v7H16a1,1,0,0,0-1,1v6a1,1,0,0,0,1,1H48a1,1,0,0,0,1-1V57a1,1,0,0,0-1-1H46V49a1,1,0,0,0-1-1H40.554a25.32,25.32,0,0,1-3.488-10.824A16.152,16.152,0,0,0,47.5,26H49a9.011,9.011,0,0,0,9-9V7A1,1,0,0,0,57,6ZM47,62H17V58H47Z"/><path d="M17,9H10a1,1,0,0,0-1,1v7a6.006,6.006,0,0,0,6,6h2a1,1,0,0,0,1-1V10A1,1,0,0,0,17,9ZM16,21H15a4,4,0,0,1-4-4V11h5Z"/><path d="M47,23h2a6.006,6.006,0,0,0,6-6V10a1,1,0,0,0-1-1H47a1,1,0,0,0-1,1V22A1,1,0,0,0,47,23Zm1-12h5v6a4,4,0,0,1-4,4H48Z"/><rect x="24" width="2" height="2"/><rect x="42" y="4" width="2" height="2"/><path d="M39.948,15.03a1,1,0,0,0-.8-.671L34.842,13.7,32.905,9.575a1,1,0,0,0-1.81,0L29.158,13.7l-4.309.658a1,1,0,0,0-.565,1.687l3.148,3.225-.745,4.568a1,1,0,0,0,1.471,1.036L32,22.751l3.842,2.124a1,1,0,0,0,1.06-.058,1,1,0,0,0,.411-.978l-.745-4.568,3.148-3.225A1,1,0,0,0,39.948,15.03Zm-5.164,3.206a1,1,0,0,0-.271.86l.5,3.032-2.524-1.395a1,1,0,0,0-.968,0l-2.524,1.395.495-3.032a1,1,0,0,0-.271-.86l-2.141-2.194,2.913-.445a1,1,0,0,0,.754-.564L32,12.354l1.258,2.679a1,1,0,0,0,.754.564l2.913.445Z"/><rect x="27" y="52" width="10" height="2"/></g></svg>