<?xml version="1.0" encoding="utf-8"?>
<!-- Generator: Adobe Illustrator 22.0.0, SVG Export Plug-In . SVG Version: 6.00 Build 0)  -->
<svg version="1.1" id="Icon_Set" xmlns="http://www.w3.org/2000/svg" xmlns:xlink="http://www.w3.org/1999/xlink" x="0px" y="0px"
	 viewBox="0 0 64 64" style="enable-background:new 0 0 64 64;" xml:space="preserve">
<style type="text/css">
	.st0{fill:#40C4FF;}
	.st1{fill:#263238;}
	.st2{fill:#FFD740;}
	.st3{fill:#FF5252;}
	.st4{fill:#4DB6AC;}
	.st5{fill:#FFFFFF;}
	.st6{fill:#4FC3F7;}
	.st7{fill:#37474F;}
</style>
<g>
	<g>
		<path class="st1" d="M31.625,33.521c-0.027,0-0.055-0.002-0.083-0.007c-0.272-0.045-0.457-0.303-0.411-0.575l0.5-3
			c0.045-0.273,0.302-0.458,0.575-0.411c0.272,0.045,0.457,0.303,0.411,0.575l-0.5,3C32.078,33.348,31.866,33.521,31.625,33.521z"/>
	</g>
	<g>
		<path class="st1" d="M39.732,33.5c-0.24,0-0.452-0.173-0.493-0.418l-0.5-3c-0.045-0.272,0.139-0.53,0.411-0.575
			c0.271-0.05,0.53,0.138,0.575,0.411l0.5,3c0.045,0.272-0.139,0.53-0.411,0.575C39.787,33.498,39.76,33.5,39.732,33.5z"/>
	</g>
	<g>
		<path class="st1" d="M25.5,21H23c-3.86,0-7-3.141-7-7V9c0-1.654,1.346-3,3-3h6.5c1.103,0,2,0.897,2,2v11
			C27.5,20.103,26.603,21,25.5,21z M19,7c-1.103,0-2,0.897-2,2v5c0,3.309,2.691,6,6,6h2.5c0.551,0,1-0.448,1-1V8
			c0-0.552-0.449-1-1-1H19z M24,18h-1c-2.206,0-4-1.794-4-4V9.5C19,9.224,19.223,9,19.5,9H24c0.276,0,0.5,0.224,0.5,0.5v8
			C24.5,17.776,24.276,18,24,18z M20,10v4c0,1.654,1.346,3,3,3h0.5v-7H20z"/>
	</g>
	<g>
		<path class="st1" d="M49,21h-2.5c-1.103,0-2-0.897-2-2V8c0-1.103,0.897-2,2-2H53c1.654,0,3,1.346,3,3v5C56,17.859,52.859,21,49,21
			z M46.5,7c-0.551,0-1,0.448-1,1v11c0,0.552,0.449,1,1,1H49c3.309,0,6-2.691,6-6V9c0-1.103-0.897-2-2-2H46.5z M49,18h-1
			c-0.276,0-0.5-0.224-0.5-0.5v-8C47.5,9.224,47.723,9,48,9h4.5C52.776,9,53,9.224,53,9.5V14C53,16.206,51.205,18,49,18z M48.5,17
			H49c1.654,0,3-1.346,3-3v-4h-3.5V17z"/>
	</g>
	<g>
		<path class="st2" d="M48,5.5V16c0,6.627-5.373,12-12,12h0c-6.627,0-12-5.373-12-12V5.5C24,4.119,25.119,3,26.5,3h19
			C46.88,3,48,4.119,48,5.5z"/>
		<path class="st1" d="M36,28.5c-6.893,0-12.5-5.607-12.5-12.5V5.5c0-1.654,1.346-3,3-3h19c1.654,0,3,1.346,3,3V16
			C48.5,22.893,42.892,28.5,36,28.5z M26.5,3.5c-1.103,0-2,0.897-2,2V16c0,6.341,5.159,11.5,11.5,11.5S47.5,22.341,47.5,16V5.5
			c0-1.103-0.897-2-2-2H26.5z"/>
	</g>
	<g>
		<path class="st2" d="M47,61H25c-0.552,0-1-0.448-1-1v-4c0-0.552,0.448-1,1-1h22c0.552,0,1,0.448,1,1v4C48,60.552,47.552,61,47,61z
			"/>
		<path class="st1" d="M47,61.5H25c-0.827,0-1.5-0.673-1.5-1.5v-4c0-0.827,0.673-1.5,1.5-1.5h22c0.827,0,1.5,0.673,1.5,1.5v4
			C48.5,60.827,47.827,61.5,47,61.5z M25,55.5c-0.276,0-0.5,0.225-0.5,0.5v4c0,0.275,0.224,0.5,0.5,0.5h22
			c0.276,0,0.5-0.225,0.5-0.5v-4c0-0.275-0.224-0.5-0.5-0.5H25z"/>
	</g>
	<g>
		<path class="st1" d="M52,35c-0.215,0-0.406-0.138-0.474-0.342L50.973,33c-0.231-0.692-0.782-1.243-1.473-1.473l-1.659-0.553
			c-0.204-0.068-0.342-0.26-0.342-0.475s0.138-0.406,0.342-0.475l1.658-0.553c0.691-0.229,1.242-0.78,1.473-1.473l0.553-1.658
			c0.136-0.408,0.812-0.408,0.948,0L53.027,28c0.231,0.692,0.782,1.243,1.473,1.473l1.659,0.553c0.204,0.068,0.342,0.26,0.342,0.475
			s-0.138,0.406-0.342,0.475L54.5,31.527c-0.691,0.229-1.242,0.78-1.473,1.473l-0.553,1.658C52.406,34.862,52.215,35,52,35z
			 M49.581,30.5l0.235,0.078c0.988,0.329,1.775,1.116,2.105,2.105L52,32.919l0.079-0.235c0.33-0.989,1.117-1.776,2.105-2.105
			l0.235-0.078l-0.235-0.078c-0.988-0.329-1.775-1.116-2.105-2.105L52,28.081l-0.079,0.235c-0.33,0.989-1.117,1.776-2.105,2.105
			L49.581,30.5z"/>
	</g>
	<g>
		<polygon class="st5" points="36,9.5 37.545,12.792 41,13.32 38.5,15.882 39.09,19.5 36,17.792 32.91,19.5 33.5,15.882 31,13.32 
			34.455,12.792 		"/>
		<path class="st1" d="M39.09,20c-0.083,0-0.167-0.021-0.242-0.062L36,18.363l-2.848,1.574c-0.167,0.093-0.373,0.082-0.53-0.028
			c-0.156-0.11-0.236-0.301-0.206-0.489l0.549-3.369l-2.324-2.382c-0.131-0.135-0.176-0.331-0.116-0.509s0.213-0.307,0.398-0.335
			l3.191-0.487l1.432-3.051c0.165-0.35,0.74-0.35,0.905,0l1.432,3.051l3.191,0.487c0.185,0.028,0.339,0.157,0.398,0.335
			s0.015,0.374-0.116,0.509l-2.324,2.382l0.55,3.369c0.031,0.188-0.049,0.379-0.206,0.489C39.292,19.97,39.191,20,39.09,20z
			 M36,17.292c0.083,0,0.167,0.021,0.242,0.062l2.189,1.21l-0.425-2.603c-0.025-0.156,0.025-0.315,0.136-0.43l1.82-1.865
			l-2.493-0.381c-0.165-0.025-0.306-0.131-0.377-0.281L36,10.677l-1.092,2.328c-0.071,0.15-0.212,0.256-0.377,0.281l-2.493,0.381
			l1.82,1.865c0.111,0.114,0.161,0.273,0.136,0.43l-0.424,2.603l2.189-1.21C35.833,17.312,35.916,17.292,36,17.292z"/>
	</g>
	<g>
		<path class="st0" d="M12.5,56.5H18c0.552,0,1-0.448,1-1v-18c0-0.552-0.448-1-1-1h-5.5c-0.552,0-1,0.448-1,1v18
			C11.5,56.052,11.948,56.5,12.5,56.5z"/>
		<path class="st1" d="M18,57h-5.5c-0.827,0-1.5-0.673-1.5-1.5v-18c0-0.827,0.673-1.5,1.5-1.5H18c0.827,0,1.5,0.673,1.5,1.5v18
			C19.5,56.327,18.827,57,18,57z M12.5,37c-0.276,0-0.5,0.225-0.5,0.5v18c0,0.275,0.224,0.5,0.5,0.5H18c0.276,0,0.5-0.225,0.5-0.5
			v-18c0-0.275-0.224-0.5-0.5-0.5H12.5z"/>
	</g>
	<g>
		<path class="st1" d="M38.5,55.5H35c-1.654,0-3-1.346-3-3s1.346-3,3-3h3.357c1.602,0,2.976,1.183,3.127,2.692
			c0.085,0.847-0.191,1.692-0.759,2.319C40.157,55.14,39.346,55.5,38.5,55.5z M35,50.5c-1.103,0-2,0.897-2,2s0.897,2,2,2h3.5
			c0.564,0,1.105-0.24,1.484-0.659c0.384-0.424,0.563-0.974,0.505-1.549c-0.101-1.005-1.037-1.792-2.132-1.792H35z"/>
	</g>
	<g>
		<path class="st1" d="M40.5,50.5H35c-1.654,0-3-1.346-3-3s1.346-3,3-3h5.357c1.602,0,2.976,1.183,3.127,2.692
			c0.085,0.847-0.191,1.692-0.759,2.319C42.157,50.14,41.346,50.5,40.5,50.5z M35,45.5c-1.103,0-2,0.897-2,2s0.897,2,2,2h5.5
			c0.564,0,1.105-0.24,1.484-0.659c0.384-0.424,0.563-0.974,0.505-1.549c-0.101-1.005-1.037-1.792-2.132-1.792H35z"/>
	</g>
	<g>
		<path class="st1" d="M37,55.5H21c-0.276,0-0.5-0.224-0.5-0.5s0.224-0.5,0.5-0.5h16c0.276,0,0.5,0.224,0.5,0.5S37.276,55.5,37,55.5
			z"/>
	</g>
	<g>
		<path class="st1" d="M40.5,40.5H35c-0.276,0-0.5-0.224-0.5-0.5s0.224-0.5,0.5-0.5h5.5c0.564,0,1.105-0.24,1.484-0.659
			c0.384-0.424,0.563-0.974,0.506-1.549c-0.101-1.005-1.038-1.792-2.133-1.792h-9.931c-1.213,0-2.4,0.229-3.528,0.679l-5.712,2.285
			c-0.254,0.103-0.547-0.021-0.65-0.278c-0.103-0.256,0.022-0.547,0.279-0.649l5.712-2.285c1.247-0.498,2.559-0.751,3.899-0.751
			h9.931c1.602,0,2.976,1.183,3.128,2.692c0.085,0.847-0.192,1.692-0.76,2.319C42.157,40.14,41.346,40.5,40.5,40.5z"/>
	</g>
	<g>
		<path class="st1" d="M31.007,45.5c-0.744,0-1.467-0.274-2.02-0.775C28.36,44.156,28,43.346,28,42.5v-1.75
			c0-0.276,0.224-0.5,0.5-0.5s0.5,0.224,0.5,0.5v1.75c0,0.563,0.24,1.104,0.659,1.483c0.424,0.384,0.976,0.565,1.549,0.507
			C32.213,44.389,33,43.452,33,42.357V37.5c0-1.103-0.897-2-2-2c-0.276,0-0.5-0.224-0.5-0.5s0.224-0.5,0.5-0.5c1.654,0,3,1.346,3,3
			v4.857c0,1.602-1.183,2.976-2.692,3.127C31.208,45.495,31.107,45.5,31.007,45.5z"/>
	</g>
	<g>
		<path class="st1" d="M41.5,45.5H35c-0.957,0-1.865-0.468-2.43-1.251c-0.125-0.174-0.125-0.409,0-0.584
			c0.277-0.386,0.43-0.851,0.43-1.308v-1.846c0-0.157,0.074-0.305,0.199-0.399c0.531-0.4,1.154-0.612,1.801-0.612h6.357
			c1.602,0,2.976,1.183,3.127,2.692c0.085,0.847-0.191,1.692-0.759,2.319C43.157,45.14,42.346,45.5,41.5,45.5z M33.593,43.915
			C33.966,44.29,34.464,44.5,35,44.5h6.5c0.564,0,1.105-0.24,1.484-0.659c0.384-0.424,0.563-0.974,0.505-1.549
			c-0.101-1.005-1.037-1.792-2.132-1.792H35c-0.351,0-0.692,0.096-1,0.277v1.58C34,42.902,33.86,43.435,33.593,43.915z"/>
	</g>
	<g>
		<path class="st1" d="M9,30.5H8c-0.276,0-0.5-0.224-0.5-0.5s0.224-0.5,0.5-0.5h1c0.276,0,0.5,0.224,0.5,0.5S9.276,30.5,9,30.5z"/>
	</g>
	<g>
		<path class="st1" d="M19,30.5h-8c-0.276,0-0.5-0.224-0.5-0.5s0.224-0.5,0.5-0.5h8c0.276,0,0.5,0.224,0.5,0.5S19.276,30.5,19,30.5z
			"/>
	</g>
</g>
</svg>
